<svg width="60" height="60" viewBox="0 0 60 60" fill="none" xmlns="http://www.w3.org/2000/svg">
<g clip-path="url(#clip0_215_71)">
<path fill-rule="evenodd" clip-rule="evenodd" d="M30 0C46.5685 0 60 13.4315 60 30C60 46.5685 46.5685 60 30 60C25.4956 60 21.223 59.0073 17.3891 57.2286L20.4121 38.742C20.8441 35.88 21.7621 33.342 23.1661 31.128C24.5161 28.914 25.8391 27.807 27.1351 27.807C28.8091 27.807 29.6461 28.968 29.6461 31.29C29.6461 34.8 28.6741 38.283 26.7301 41.739C27.3781 42.387 28.5121 42.711 30.1321 42.711C33.8581 42.711 36.8011 41.658 38.9611 39.552C41.1751 37.446 42.2821 34.746 42.2821 31.452C42.2821 28.104 41.4181 25.62 39.6901 24C38.0161 22.38 35.6131 21.57 32.4811 21.57C26.5411 21.57 22.2481 24.297 19.6021 29.751L21.0601 21.57L7.69511 23.19L3.62943 44.3156C1.31492 40.0611 0 35.1841 0 30C0 13.4315 13.4315 0 30 0Z" fill="white"/>
</g>
<defs>
<clipPath id="clip0_215_71">
<rect width="60" height="60" fill="white"/>
</clipPath>
</defs>
</svg>
