<svg width="264" height="39" viewBox="0 0 264 39" fill="none" xmlns="http://www.w3.org/2000/svg">
<g clip-path="url(#clip0_228_75)">
<path d="M16.2801 11.0202C16.6801 10.2202 16.8801 9.44687 16.8801 8.7002C16.8801 7.95353 16.8401 7.3802 16.7601 6.9802C16.6801 6.55353 16.5468 6.1802 16.3601 5.8602C15.9601 5.16687 15.3601 4.8202 14.5601 4.8202C13.5734 4.8202 12.6801 5.1802 11.8801 5.9002C11.0268 6.64687 10.6001 7.60687 10.6001 8.7802C10.6001 9.52687 10.8534 10.1935 11.3601 10.7802C11.8934 11.3402 12.5601 11.8869 13.3601 12.4202C14.1601 12.9535 15.0134 13.4869 15.9201 14.0202C16.8268 14.5535 17.6801 15.1402 18.4801 15.7802C20.3201 17.2469 21.2401 18.9669 21.2401 20.9402C21.2401 22.2735 20.8801 23.5135 20.1601 24.6602C19.4668 25.7802 18.5334 26.7535 17.3601 27.5802C14.8001 29.3935 11.8268 30.3002 8.44008 30.3002C5.69341 30.3002 3.61341 29.8602 2.20008 28.9802C0.786745 28.0735 0.0800781 26.9402 0.0800781 25.5802C0.0800781 23.1535 1.02675 21.6335 2.92008 21.0202C3.45341 20.8335 4.12008 20.7402 4.92008 20.7402C5.74675 20.7402 6.62675 20.9135 7.56008 21.2602C7.13341 22.3535 6.92008 23.3935 6.92008 24.3802C6.92008 26.5135 7.68008 27.5802 9.20008 27.5802C10.1868 27.5802 11.0801 27.2202 11.8801 26.5002C12.7068 25.7802 13.1201 25.0202 13.1201 24.2202C13.1201 23.3935 12.8534 22.6869 12.3201 22.1002C11.8134 21.5135 11.1734 20.9935 10.4001 20.5402C9.62675 20.0602 8.78675 19.5935 7.88008 19.1402C7.00008 18.6869 6.17341 18.1402 5.40008 17.5002C3.58675 16.0335 2.68008 14.1269 2.68008 11.7802C2.68008 10.2602 3.05341 8.91353 3.80008 7.7402C4.54675 6.5402 5.52008 5.5402 6.72008 4.7402C9.12008 3.11353 11.7868 2.3002 14.7201 2.3002C17.6801 2.3002 19.8668 2.7402 21.2801 3.6202C22.7201 4.5002 23.4401 5.68687 23.4401 7.1802C23.4401 8.48687 22.9334 9.55353 21.9201 10.3802C21.0401 11.0735 20.0668 11.4202 19.0001 11.4202C17.9334 11.4202 17.0268 11.2869 16.2801 11.0202ZM24.4138 25.5002C24.4138 24.7802 24.6005 23.5135 24.9739 21.7002L27.0939 10.9002H24.7339L24.8939 9.7002C28.0939 8.7402 31.2405 7.08687 34.3339 4.7402H36.2539L35.2939 9.1002H38.4139L38.0539 10.9002H34.9739L32.9339 21.7002C32.5872 23.3535 32.4139 24.4602 32.4139 25.0202C32.4139 26.3002 32.9739 27.0735 34.0939 27.3402C33.8272 28.2469 33.2139 28.9669 32.2539 29.5002C31.2939 30.0335 30.1339 30.3002 28.7739 30.3002C27.4139 30.3002 26.3472 29.8735 25.5739 29.0202C24.8005 28.1669 24.4138 26.9935 24.4138 25.5002ZM39.2907 28.3002C38.6774 27.6069 38.2241 26.7135 37.9307 25.6202C37.6641 24.5269 37.5307 23.0869 37.5307 21.3002C37.5307 19.5135 37.8374 17.8069 38.4507 16.1802C39.0641 14.5535 39.9307 13.1535 41.0507 11.9802C43.3441 9.52687 46.3841 8.3002 50.1707 8.3002C51.5307 8.3002 52.7041 8.52687 53.6907 8.9802L60.5307 8.3002L57.5707 23.9002C57.4907 24.2202 57.4507 24.6735 57.4507 25.2602C57.4507 25.8469 57.6241 26.3269 57.9707 26.7002C58.3441 27.0735 58.7974 27.2869 59.3307 27.3402C59.0641 28.2469 58.4374 28.9669 57.4507 29.5002C56.4907 30.0335 55.4641 30.3002 54.3707 30.3002C53.2774 30.3002 52.3574 30.0869 51.6107 29.6602C50.8907 29.2602 50.4241 28.7135 50.2107 28.0202C49.7841 28.6869 49.1174 29.2335 48.2107 29.6602C47.3041 30.0869 46.2374 30.3002 45.0107 30.3002C43.8107 30.3002 42.7174 30.1402 41.7307 29.8202C40.7441 29.5002 39.9307 28.9935 39.2907 28.3002ZM47.7307 12.0602C47.4374 12.5402 47.1574 13.1935 46.8907 14.0202C46.6241 14.8202 46.2641 16.3135 45.8107 18.5002C45.3841 20.6602 45.1707 22.5135 45.1707 24.0602C45.1707 25.6069 45.2907 26.6069 45.5307 27.0602C45.7707 27.5135 46.1041 27.7402 46.5307 27.7402C47.3841 27.7402 48.1174 27.3402 48.7307 26.5402C49.3707 25.7135 49.8107 24.5802 50.0507 23.1402L52.1707 11.4202C51.6107 10.9402 50.9974 10.7002 50.3307 10.7002C49.6907 10.7002 49.1707 10.8069 48.7707 11.0202C48.3974 11.2335 48.0507 11.5802 47.7307 12.0602ZM74.9079 24.9802C73.5212 26.4202 71.5612 27.1402 69.0279 27.1402C65.8546 27.1402 63.9346 25.9802 63.2679 23.6602C63.0546 22.9669 62.9479 22.2335 62.9479 21.4602C62.9479 20.6869 63.0279 19.9002 63.1879 19.1002L65.0679 9.1002L73.1879 8.3002L70.9879 19.9402C70.9346 20.2869 70.8679 20.6469 70.7879 21.0202C70.7079 21.3935 70.6679 21.7802 70.6679 22.1802C70.6679 22.5535 70.7346 22.8735 70.8679 23.1402C71.0012 23.3802 71.1612 23.5802 71.3479 23.7402C71.6679 23.9535 72.1079 24.0602 72.6679 24.0602C73.2546 24.0602 73.7879 23.7135 74.2679 23.0202C74.7746 22.3269 75.1479 21.3802 75.3879 20.1802L77.5879 9.1002L85.4679 8.3002L82.4679 24.0202C81.4812 29.1402 79.9746 32.7135 77.9479 34.7402C76.9079 35.7802 75.7079 36.5002 74.3479 36.9002C73.0146 37.3269 71.4812 37.5402 69.7479 37.5402C66.9479 37.5402 64.7479 37.1002 63.1479 36.2202C61.5479 35.3402 60.7479 34.1669 60.7479 32.7002C60.7479 31.6069 61.1612 30.7402 61.9879 30.1002C62.8146 29.4869 63.8679 29.1802 65.1479 29.1802C66.2679 29.1802 67.2546 29.4202 68.1079 29.9002C68.6146 30.1935 68.9879 30.5269 69.2279 30.9002C68.6146 31.4335 68.3079 32.1402 68.3079 33.0202C68.3079 34.1935 68.8412 34.7802 69.9079 34.7802C71.6679 34.7802 73.0546 32.7535 74.0679 28.7002C74.3612 27.5002 74.6412 26.2602 74.9079 24.9802ZM94.9167 23.5802C94.9167 22.5402 95.05 21.3535 95.3167 20.0202L98.5567 3.1002H107.397L104.197 20.1402C103.957 21.3935 103.837 22.4869 103.837 23.4202C103.837 24.3269 104.023 25.0202 104.397 25.5002C104.797 25.9802 105.357 26.2202 106.077 26.2202C106.797 26.2202 107.383 26.1269 107.837 25.9402C108.29 25.7535 108.703 25.4335 109.077 24.9802C109.797 24.0735 110.383 22.4602 110.837 20.1402L114.077 3.1002H120.117L116.917 20.1002C116.17 23.8869 114.77 26.5402 112.717 28.0602C110.717 29.5535 107.743 30.3002 103.797 30.3002C100.837 30.3002 98.57 29.6602 96.9967 28.3802C95.61 27.2602 94.9167 25.6602 94.9167 23.5802ZM139.054 26.7802C137.934 27.9002 136.601 28.7669 135.054 29.3802C133.534 29.9935 132.014 30.3002 130.494 30.3002C128.974 30.3002 127.948 30.1669 127.414 29.9002L126.174 36.7002L118.054 37.5002L123.574 9.1002L130.094 8.4202L129.574 11.1802C130.694 9.28687 132.414 8.3402 134.734 8.3402C137.348 8.3402 139.348 9.1802 140.734 10.8602C141.961 12.3802 142.574 14.3002 142.574 16.6202C142.574 18.9402 142.268 20.9269 141.654 22.5802C141.041 24.2335 140.174 25.6335 139.054 26.7802ZM127.894 27.2602C128.454 27.7402 129.081 27.9802 129.774 27.9802C130.468 27.9802 131.014 27.8469 131.414 27.5802C131.814 27.3135 132.161 26.9135 132.454 26.3802C133.254 24.9402 133.974 22.0335 134.614 17.6602C134.801 16.3802 134.894 15.1135 134.894 13.8602C134.894 12.6069 134.748 11.7802 134.454 11.3802C134.188 10.9802 133.788 10.7802 133.254 10.7802C131.628 10.7802 130.548 12.3669 130.014 15.5402L127.894 27.2602ZM157.085 8.3002C158.045 8.3002 158.898 8.40687 159.645 8.6202C159.671 8.51353 159.711 8.31353 159.765 8.0202L159.965 6.7802C160.071 6.24687 160.205 5.5402 160.365 4.6602L161.005 1.50019L168.965 0.700195L164.525 23.9002C164.498 24.0602 164.485 24.2735 164.485 24.5402V25.1802C164.485 25.7669 164.631 26.2869 164.925 26.7402C165.218 27.1669 165.605 27.3802 166.085 27.3802C165.551 28.6335 164.471 29.5269 162.845 30.0602C162.285 30.2202 161.605 30.3002 160.805 30.3002C160.031 30.3002 159.285 30.0869 158.565 29.6602C157.845 29.2602 157.378 28.7135 157.165 28.0202C156.738 28.7135 156.098 29.2602 155.245 29.6602C154.391 30.0869 153.338 30.3002 152.085 30.3002C150.858 30.3002 149.725 30.1402 148.685 29.8202C147.671 29.5002 146.845 28.9935 146.205 28.3002C145.031 26.9402 144.445 24.7135 144.445 21.6202C144.445 17.6202 145.618 14.4069 147.965 11.9802C150.311 9.52687 153.351 8.3002 157.085 8.3002ZM156.805 10.7002C155.818 10.7002 155.058 11.2335 154.525 12.3002C153.991 13.3669 153.445 15.2202 152.885 17.8602C152.351 20.5002 152.085 23.0069 152.085 25.3802C152.085 27.0069 152.565 27.8202 153.525 27.8202C154.378 27.8202 155.098 27.3935 155.685 26.5402C156.298 25.6869 156.725 24.5535 156.965 23.1402L159.125 11.4202C158.565 10.9402 157.791 10.7002 156.805 10.7002ZM170.705 28.3002C170.091 27.6069 169.638 26.7135 169.345 25.6202C169.078 24.5269 168.945 23.0869 168.945 21.3002C168.945 19.5135 169.251 17.8069 169.865 16.1802C170.478 14.5535 171.345 13.1535 172.465 11.9802C174.758 9.52687 177.798 8.3002 181.585 8.3002C182.945 8.3002 184.118 8.52687 185.105 8.9802L191.945 8.3002L188.985 23.9002C188.905 24.2202 188.865 24.6735 188.865 25.2602C188.865 25.8469 189.038 26.3269 189.385 26.7002C189.758 27.0735 190.211 27.2869 190.745 27.3402C190.478 28.2469 189.851 28.9669 188.865 29.5002C187.905 30.0335 186.878 30.3002 185.785 30.3002C184.691 30.3002 183.771 30.0869 183.025 29.6602C182.305 29.2602 181.838 28.7135 181.625 28.0202C181.198 28.6869 180.531 29.2335 179.625 29.6602C178.718 30.0869 177.651 30.3002 176.425 30.3002C175.225 30.3002 174.131 30.1402 173.145 29.8202C172.158 29.5002 171.345 28.9935 170.705 28.3002ZM179.145 12.0602C178.851 12.5402 178.571 13.1935 178.305 14.0202C178.038 14.8202 177.678 16.3135 177.225 18.5002C176.798 20.6602 176.585 22.5135 176.585 24.0602C176.585 25.6069 176.705 26.6069 176.945 27.0602C177.185 27.5135 177.518 27.7402 177.945 27.7402C178.798 27.7402 179.531 27.3402 180.145 26.5402C180.785 25.7135 181.225 24.5802 181.465 23.1402L183.585 11.4202C183.025 10.9402 182.411 10.7002 181.745 10.7002C181.105 10.7002 180.585 10.8069 180.185 11.0202C179.811 11.2335 179.465 11.5802 179.145 12.0602ZM194.242 25.5002C194.242 24.7802 194.429 23.5135 194.802 21.7002L196.922 10.9002H194.562L194.722 9.7002C197.922 8.7402 201.069 7.08687 204.162 4.7402H206.082L205.122 9.1002H208.242L207.882 10.9002H204.802L202.762 21.7002C202.415 23.3535 202.242 24.4602 202.242 25.0202C202.242 26.3002 202.802 27.0735 203.922 27.3402C203.655 28.2469 203.042 28.9669 202.082 29.5002C201.122 30.0335 199.962 30.3002 198.602 30.3002C197.242 30.3002 196.175 29.8735 195.402 29.0202C194.629 28.1669 194.242 26.9935 194.242 25.5002ZM223.599 22.7402C224.265 23.1935 224.599 23.9269 224.599 24.9402C224.599 25.9269 224.345 26.7402 223.839 27.3802C223.332 28.0202 222.665 28.5535 221.839 28.9802C220.132 29.8602 218.359 30.3002 216.519 30.3002C214.679 30.3002 213.212 30.1002 212.119 29.7002C211.052 29.3002 210.159 28.7269 209.439 27.9802C208.025 26.5669 207.319 24.5669 207.319 21.9802C207.319 17.9535 208.412 14.7135 210.599 12.2602C212.945 9.6202 216.159 8.3002 220.239 8.3002C222.772 8.3002 224.665 8.83353 225.919 9.9002C226.852 10.7002 227.319 11.7535 227.319 13.0602C227.319 17.7535 223.265 20.1002 215.159 20.1002C215.052 20.7935 214.999 21.4335 214.999 22.0202C214.999 23.2469 215.265 24.1002 215.799 24.5802C216.359 25.0335 217.145 25.2602 218.159 25.2602C219.172 25.2602 220.212 25.0335 221.279 24.5802C222.372 24.1002 223.145 23.4869 223.599 22.7402ZM215.439 18.3802C217.332 18.3802 218.825 17.7935 219.919 16.6202C221.012 15.5002 221.559 14.0469 221.559 12.2602C221.559 11.6469 221.439 11.1802 221.199 10.8602C220.985 10.5135 220.652 10.3402 220.199 10.3402C219.745 10.3402 219.319 10.4335 218.919 10.6202C218.545 10.7802 218.159 11.1535 217.759 11.7402C216.772 13.0735 215.999 15.2869 215.439 18.3802ZM240.788 8.3002C241.748 8.3002 242.601 8.40687 243.348 8.6202C243.374 8.51353 243.414 8.31353 243.468 8.0202L243.668 6.7802C243.774 6.24687 243.908 5.5402 244.068 4.6602L244.708 1.50019L252.668 0.700195L248.228 23.9002C248.201 24.0602 248.188 24.2735 248.188 24.5402V25.1802C248.188 25.7669 248.334 26.2869 248.628 26.7402C248.921 27.1669 249.308 27.3802 249.788 27.3802C249.254 28.6335 248.174 29.5269 246.548 30.0602C245.988 30.2202 245.308 30.3002 244.508 30.3002C243.734 30.3002 242.988 30.0869 242.268 29.6602C241.548 29.2602 241.081 28.7135 240.868 28.0202C240.441 28.7135 239.801 29.2602 238.948 29.6602C238.094 30.0869 237.041 30.3002 235.788 30.3002C234.561 30.3002 233.428 30.1402 232.388 29.8202C231.374 29.5002 230.548 28.9935 229.908 28.3002C228.734 26.9402 228.148 24.7135 228.148 21.6202C228.148 17.6202 229.321 14.4069 231.668 11.9802C234.014 9.52687 237.054 8.3002 240.788 8.3002ZM240.508 10.7002C239.521 10.7002 238.761 11.2335 238.228 12.3002C237.694 13.3669 237.148 15.2202 236.588 17.8602C236.054 20.5002 235.788 23.0069 235.788 25.3802C235.788 27.0069 236.268 27.8202 237.228 27.8202C238.081 27.8202 238.801 27.3935 239.388 26.5402C240.001 25.6869 240.428 24.5535 240.668 23.1402L242.828 11.4202C242.268 10.9402 241.494 10.7002 240.508 10.7002ZM251.608 27.1402C251.608 26.1269 251.981 25.3535 252.728 24.8202C253.501 24.2602 254.448 23.9802 255.568 23.9802C256.688 23.9802 257.594 24.2602 258.288 24.8202C259.008 25.3535 259.368 26.1269 259.368 27.1402C259.368 28.1535 258.968 28.9402 258.168 29.5002C257.394 30.0602 256.448 30.3402 255.328 30.3402C254.208 30.3402 253.301 30.0602 252.608 29.5002C251.941 28.9402 251.608 28.1535 251.608 27.1402ZM253.768 19.6202C253.768 19.4335 253.794 19.2069 253.848 18.9402L256.968 2.8602C257.954 2.48687 259.034 2.3002 260.208 2.3002C261.381 2.3002 262.274 2.67353 262.888 3.4202C263.501 4.16687 263.808 5.1002 263.808 6.2202C263.808 7.31353 263.594 8.48687 263.168 9.7402C262.741 10.9669 262.261 12.2069 261.728 13.4602C261.221 14.7135 260.741 15.9935 260.288 17.3002C259.861 18.5802 259.634 19.9002 259.608 21.2602C258.994 21.9535 258.154 22.3002 257.088 22.3002C256.021 22.3002 255.194 22.0602 254.608 21.5802C254.048 21.0735 253.768 20.4202 253.768 19.6202Z" fill="black"/>
</g>
<defs>
<clipPath id="clip0_228_75">
<rect width="264" height="38" fill="white" transform="translate(0 0.5)"/>
</clipPath>
</defs>
</svg>
